<?xml version="1.0" encoding="UTF-8" standalone="no"?>
<svg
   xmlns:dc="http://purl.org/dc/elements/1.1/"
   xmlns:cc="http://creativecommons.org/ns#"
   xmlns:rdf="http://www.w3.org/1999/02/22-rdf-syntax-ns#"
   xmlns:svg="http://www.w3.org/2000/svg"
   xmlns="http://www.w3.org/2000/svg"
   width="26.926805mm"
   height="25.870661mm"
   viewBox="0 0 26.926805 25.870661"
   version="1.1"
   id="svg9977">
  <metadata
     id="metadata530">
    <rdf:RDF>
      <cc:Work
         rdf:about="">
        <dc:format>image/svg+xml</dc:format>
        <dc:type
           rdf:resource="http://purl.org/dc/dcmitype/StillImage" />
        <dc:title></dc:title>
      </cc:Work>
    </rdf:RDF>
  </metadata>
  <defs
     id="defs9971" />
  <path
     style="fill:none;stroke:#ffffff;stroke-width:1.58749998;stroke-linecap:round;stroke-linejoin:round;stroke-miterlimit:4;stroke-dasharray:none;stroke-opacity:1"
     id="path4288"
     d="m 13.316312,0.79423297 c -0.280959,-2.98e-4 -0.348941,0.0031 -0.537213,0.02724 C 11.981631,0.92331997 11.261007,1.237844 10.633404,1.757829 10.520411,1.851619 10.241577,2.129405 10.147348,2.242333 9.9392094,2.491864 9.7750884,2.739272 9.6334694,3.017508 l -0.06189,0.121773 -0.0873,-0.03985 C 9.0811824,2.914873 8.6499714,2.80059 8.1770524,2.753286 c -0.162985,-0.01613 -0.569741,-0.01648 -0.729831,-7.6e-5 -0.325683,0.03297 -0.631756,0.09701 -0.90897,0.189719 -1.374105,0.459874 -2.395631,1.618486 -2.672817,3.031373 -0.07866,0.401348 -0.09518,0.829166 -0.04734,1.241265 0.0072,0.06196 0.01505,0.12206 0.0172,0.133384 l 0.0043,0.02043 -0.09672,0.0258 c -0.24032,0.06411 -0.497577,0.161085 -0.732185,0.276372 -0.416364,0.204232 -0.749215,0.442381 -1.07803,0.77092 -0.389447,0.389114 -0.674079,0.822168 -0.874893,1.330918 -0.32317502,0.818781 -0.34947902,1.748469 -0.073,2.586705 0.17868202,0.542083 0.47969502,1.046687 0.86716802,1.453802 l 0.06293,0.06605 -0.03723,0.03831 c -0.104893,0.10751 -0.284148,0.333926 -0.386555,0.488539 -0.137039,0.206957 -0.28422,0.484665 -0.368221,0.694915 -0.36863702,0.922628 -0.36825002,1.931293 0.0011,2.846051 0.447165,1.107659 1.400921,1.96171 2.576476,2.307043 0.09841,0.02867 0.22165,0.05952 0.352239,0.0878 0.01433,0.0031 0.01433,0.0039 0.01792,0.308052 0.0036,0.306295 0.0075,0.377449 0.03261,0.601227 0.107582,0.970509 0.446553,1.805313 1.003626,2.472257 0.09135,0.109409 0.310023,0.328156 0.421804,0.422141 0.356754,0.299917 0.744083,0.515947 1.174452,0.654932 0.338298,0.109122 0.654312,0.161372 1.028647,0.170296 0.961089,0.02222 1.982809,-0.32339 2.9059126,-0.983314 0.611957,-0.437486 1.16579,-1.007683 1.627323,-1.670305 -0.522839,-0.113065 -1.029654,-0.301888 -1.498523,-0.569605 -2.9736976,-1.657143 -4.3413696,-5.260686 -4.3384806,-8.513733 -0.03154,-2.537408 1.856964,-4.774369 4.1799506,-5.628129 3.017375,-1.191141 6.847832,-0.346361 8.792223,2.329637 0.957002,1.255977 1.234163,2.888406 1.037477,4.426553 -0.261034,2.786888 -1.534169,5.660519 -3.970256,7.202403 -0.615924,0.400715 -1.310928,0.665683 -2.030141,0.792412 0.01505,0.02222 0.0301,0.0449 0.04562,0.06691 0.270029,0.386502 0.52939,0.693166 0.865989,1.024028 0.501866,0.493345 1.019537,0.862831 1.607444,1.147503 0.76824,0.371955 1.540433,0.529557 2.294292,0.468363 l -8.78e-4,-3.69e-4 c 0.64941,-0.05282 1.270057,-0.285045 1.785036,-0.668056 0.145425,-0.108047 0.247308,-0.196958 0.394658,-0.344318 0.07999,-0.08002 0.177069,-0.183197 0.215736,-0.229247 0.339946,-0.407441 0.585316,-0.853073 0.764345,-1.388067 0.134065,-0.401001 0.21355,-0.799898 0.254368,-1.279933 0.009,-0.105073 0.01183,-0.212869 0.01219,-0.452219 l 3.72e-4,-0.314072 0.05734,-0.0079 c 0.03154,-0.0043 0.11052,-0.01828 0.175671,-0.03118 1.415349,-0.280708 2.575402,-1.282871 3.020948,-2.609812 0.09192,-0.273899 0.144851,-0.516961 0.180258,-0.828589 0.01756,-0.152771 0.0172,-0.604356 0,-0.761012 -0.05379,-0.482156 -0.173306,-0.892883 -0.380442,-1.307 -0.178968,-0.357542 -0.380538,-0.645468 -0.664475,-0.948463 -0.110556,-0.11801 -0.10622,-0.0964 -0.03333,-0.173198 0.206527,-0.217994 0.425574,-0.524971 0.582693,-0.816409 0.533499,-0.989613 0.601446,-2.183306 0.183842,-3.231878 -0.342814,-0.86105 -0.984149,-1.57441 -1.820382,-2.024851 -0.284005,-0.153058 -0.619981,-0.282858 -0.932444,-0.360516 -0.06945,-0.0172 -0.07615,-0.02007 -0.07293,-0.03297 0.0072,-0.02974 0.03154,-0.241145 0.03813,-0.333818 0.0093,-0.126109 0.0093,-0.44727 0,-0.572615 C 22.999079,6.183108 22.977219,6.018403 22.946659,5.861109 22.677168,4.480113 21.692328,3.333965 20.362309,2.853281 20.008387,2.725309 19.638951,2.648475 19.250937,2.621813 c -0.148149,-0.01003 -0.525386,-0.0043 -0.662623,0.01039 -0.514936,0.05469 -0.97157,0.188071 -1.419097,0.41378 -0.07056,0.03548 -0.130589,0.06472 -0.133277,0.06472 -0.0027,1.1e-5 -0.02795,-0.04558 -0.05651,-0.101095 -0.598998,-1.172663 -1.747579,-1.988452 -3.067539,-2.17865803 -0.223298,-0.03225 -0.298734,-0.03695 -0.594766,-0.0372 l 8e-6,-4e-6 z" />
</svg>
